<?xml version="1.0" encoding="UTF-8"?>
<svg xmlns="http://www.w3.org/2000/svg" viewBox="0 0 22 27">
  <defs>
    <style>
      .cls-1 {
        fill: #fff;
      }

      .cls-2 {
        fill: silver;
      }

      .cls-3 {
        fill: gray;
      }
    </style>
  </defs>
  <g id="Layer_1" data-name="Layer 1" shape-rendering="crispEdges">
    <g>
      <rect class="cls-3" x="16" y="21.5" width="1" height=".5"/>
      <rect class="cls-3" x="15" y="20" width="1" height=".5"/>
      <rect class="cls-3" x="4" y="18" width="1" height=".5"/>
      <rect class="cls-3" x="3" y="19" width="1" height=".5"/>
      <rect class="cls-3" x="15" y="22" width="1" height=".5"/>
      <rect class="cls-3" x="3" y="19.5" width="1" height=".5"/>
      <rect class="cls-3" x="14" y="21.5" width="1" height=".5"/>
      <rect class="cls-3" x="15" y="20.5" width="1" height=".5"/>
      <polygon class="cls-3" points="2 24 3 24 3 23.5 1 23.5 1 24.5 2 24.5 2 24"/>
      <polygon class="cls-3" points="20 24.5 19 24.5 19 25 18 25 18 24.5 17 24.5 17 25 16 25 16 24.5 15 24.5 15 25 14 25 14 24.5 13 24.5 13 25 12 25 12 24.5 11 24.5 11 25 10 25 10 24.5 9 24.5 9 25 8 25 8 24.5 7 24.5 7 25 6 25 6 24.5 5 24.5 5 25 4 25 4 24.5 3 24.5 3 25 2 25 2 24.5 1 24.5 1 25.5 21 25.5 21 25 20 25 20 24.5"/>
      <rect class="cls-3" x="14" y="21" width="1" height=".5"/>
      <rect class="cls-3" x="2" y="20.5" width="1" height="1"/>
      <rect class="cls-3" x="2" y="21.5" width="1" height=".5"/>
      <polygon class="cls-3" points="3 23 2 23 2 22.5 1 22.5 1 23.5 3 23.5 3 23"/>
      <rect class="cls-3" x="13" y="20.5" width="1" height=".5"/>
      <rect class="cls-3" x="14" y="23" width="1" height=".5"/>
      <rect class="cls-3" x="17" y="22" width="1" height=".5"/>
      <rect class="cls-3" x="11" y="24" width="1" height=".5"/>
      <rect class="cls-3" x="9" y="24" width="1" height=".5"/>
      <rect class="cls-3" x="5" y="24" width="1" height=".5"/>
      <rect class="cls-3" x="16" y="21" width="1" height=".5"/>
      <rect class="cls-3" x="4" y="18.5" width="1" height=".5"/>
      <rect class="cls-3" x="3" y="24" width="1" height=".5"/>
      <rect class="cls-3" x="14" y="23.5" width="1" height=".5"/>
      <rect class="cls-3" x="7" y="24" width="1" height=".5"/>
      <polygon class="cls-3" points="13 19 13 19.5 15 19.5 15 19 14 19 14 18.5 12 18.5 12 19 13 19"/>
      <polygon class="cls-3" points="17 23 16 23 16 23.5 19 23.5 19 23 18 23 18 22.5 17 22.5 17 23"/>
      <polygon class="cls-3" points="16 24 17 24 17 24.5 18 24.5 18 24 19 24 19 23.5 16 23.5 16 24"/>
      <polygon class="cls-3" points="14 20.5 14 20 15 20 15 19.5 13 19.5 13 20.5 14 20.5"/>
      <rect class="cls-3" x="15" y="24" width="1" height=".5"/>
      <rect class="cls-3" x="19" y="24" width="1" height=".5"/>
      <rect class="cls-3" x="13" y="24" width="1" height=".5"/>
      <rect class="cls-3" x="15" y="22.5" width="1" height=".5"/>
      <rect class="cls-3" x="2" y="20" width="1" height=".5"/>
      <polygon class="cls-3" points="13 18 13 17.5 13 17 11 17 11 16.5 11 16 8 16 8 16.5 8 17 6 17 6 17.5 6 18 12 18 12 18.5 14 18.5 14 18 13 18"/>
      <rect class="cls-3" x="1" y="22" width="1" height=".5"/>
      <rect class="cls-3" x="1" y="25.5" width="20" height=".5"/>
      <rect class="cls-3" x="21" y="24.5" width="1" height=".5"/>
      <rect class="cls-3" x="21" y="24" width="1" height=".5"/>
      <rect class="cls-2" x="15" y="21.5" width="1" height=".5"/>
      <rect class="cls-2" x="9" y="19.5" width="1" height=".5"/>
      <rect class="cls-2" x="7" y="19.5" width="1" height=".5"/>
      <rect class="cls-2" x="15" y="21" width="1" height=".5"/>
      <polygon class="cls-2" points="12 20 12 20.5 13 20.5 13 19.5 11 19.5 11 20 12 20"/>
      <rect class="cls-2" x="15" y="23" width="1" height=".5"/>
      <rect class="cls-2" x="15" y="23.5" width="1" height=".5"/>
      <rect class="cls-2" x="13" y="23.5" width="1" height=".5"/>
      <rect class="cls-2" x="16" y="22" width="1" height=".5"/>
      <rect class="cls-2" x="16" y="22.5" width="1" height=".5"/>
      <rect class="cls-2" x="11" y="23.5" width="1" height=".5"/>
      <rect class="cls-2" x="5" y="23.5" width="1" height=".5"/>
      <rect class="cls-2" x="4" y="22" width="1" height=".5"/>
      <rect class="cls-2" x="4" y="22.5" width="1" height=".5"/>
      <rect class="cls-2" x="5" y="21.5" width="1" height=".5"/>
      <rect class="cls-2" x="6" y="20.5" width="1" height=".5"/>
      <rect class="cls-2" x="9" y="23.5" width="1" height=".5"/>
      <rect class="cls-2" x="7" y="23.5" width="1" height=".5"/>
      <rect class="cls-2" x="14" y="20" width="1" height=".5"/>
      <rect class="cls-2" x="10" y="22" width="1" height=".5"/>
      <rect class="cls-2" x="4" y="24.5" width="1" height=".5"/>
      <rect class="cls-2" x="14" y="20.5" width="1" height=".5"/>
      <rect class="cls-2" x="13" y="21.5" width="1" height=".5"/>
      <rect class="cls-2" x="11" y="21.5" width="1" height=".5"/>
      <rect class="cls-2" x="2" y="24.5" width="1" height=".5"/>
      <rect class="cls-2" x="12" y="20.5" width="1" height=".5"/>
      <polygon class="cls-2" points="12 18 6 18 5 18 5 18.5 12 18.5 12 18"/>
      <rect class="cls-2" x="2" y="24" width="1" height=".5"/>
      <rect class="cls-2" x="13" y="21" width="1" height=".5"/>
      <rect class="cls-2" x="11" y="21" width="1" height=".5"/>
      <rect class="cls-2" x="14" y="24.5" width="1" height=".5"/>
      <rect class="cls-2" x="12" y="22" width="1" height=".5"/>
      <rect class="cls-2" x="9" y="21" width="1" height=".5"/>
      <rect class="cls-2" x="12" y="22.5" width="1" height=".5"/>
      <rect class="cls-2" x="8" y="22.5" width="1" height=".5"/>
      <rect class="cls-2" x="10" y="22.5" width="1" height=".5"/>
      <rect class="cls-2" x="9" y="21.5" width="1" height=".5"/>
      <rect class="cls-2" x="8" y="22" width="1" height=".5"/>
      <rect class="cls-2" x="10" y="20.5" width="1" height=".5"/>
      <rect class="cls-2" x="7" y="23" width="1" height=".5"/>
      <rect class="cls-2" x="11" y="23" width="1" height=".5"/>
      <rect class="cls-2" x="9" y="23" width="1" height=".5"/>
      <rect class="cls-2" x="5" y="23" width="1" height=".5"/>
      <rect class="cls-2" x="13" y="23" width="1" height=".5"/>
      <rect class="cls-2" x="14" y="22.5" width="1" height=".5"/>
      <rect class="cls-2" x="14" y="22" width="1" height=".5"/>
      <rect class="cls-2" x="12" y="24.5" width="1" height=".5"/>
      <rect class="cls-2" x="6" y="24.5" width="1" height=".5"/>
      <rect class="cls-2" x="6" y="22.5" width="1" height=".5"/>
      <rect class="cls-2" x="8" y="20.5" width="1" height=".5"/>
      <rect class="cls-2" x="8" y="24.5" width="1" height=".5"/>
      <rect class="cls-2" x="8" y="20" width="1" height=".5"/>
      <rect class="cls-2" x="10" y="20" width="1" height=".5"/>
      <rect class="cls-2" x="10" y="24.5" width="1" height=".5"/>
      <rect class="cls-2" x="7" y="21" width="1" height=".5"/>
      <rect class="cls-2" x="7" y="21.5" width="1" height=".5"/>
      <rect class="cls-2" x="6" y="22" width="1" height=".5"/>
      <rect class="cls-2" x="16" y="24.5" width="1" height=".5"/>
      <rect class="cls-2" x="2" y="22.5" width="1" height=".5"/>
      <polygon class="cls-2" points="7 19 7 19.5 8 19.5 8 19 9 19 9 19.5 10 19.5 10 19 11 19 11 19.5 13 19.5 13 19 12 19 12 18.5 5 18.5 5 19 4 19 4 19.5 6 19.5 6 19 7 19"/>
      <rect class="cls-2" x="8" y="24" width="1" height=".5"/>
      <rect class="cls-2" x="6" y="24" width="1" height=".5"/>
      <rect class="cls-2" x="3" y="21.5" width="1" height=".5"/>
      <rect class="cls-2" x="3" y="23.5" width="1" height=".5"/>
      <rect class="cls-2" x="3" y="23" width="1" height=".5"/>
      <rect class="cls-2" x="4" y="24" width="1" height=".5"/>
      <rect class="cls-2" x="14" y="24" width="1" height=".5"/>
      <polygon class="cls-2" points="4 21.5 4 21 5 21 5 20.5 3 20.5 3 21.5 4 21.5"/>
      <polygon class="cls-2" points="5 20 6 20 6 19.5 4 19.5 4 20 3 20 3 20.5 5 20.5 5 20"/>
      <rect class="cls-2" x="12" y="24" width="1" height=".5"/>
      <rect class="cls-2" x="10" y="24" width="1" height=".5"/>
      <rect class="cls-2" x="2" y="22" width="1" height=".5"/>
      <rect class="cls-2" x="16" y="24" width="1" height=".5"/>
      <rect class="cls-2" x="6" y="20" width="1" height=".5"/>
      <rect class="cls-2" x="5" y="21" width="1" height=".5"/>
      <rect class="cls-1" x="11" y="20" width="1" height=".5"/>
      <rect class="cls-1" x="9" y="20" width="1" height=".5"/>
      <rect class="cls-1" x="12" y="23" width="1" height=".5"/>
      <rect class="cls-1" x="7" y="22" width="1" height=".5"/>
      <rect class="cls-1" x="12" y="21.5" width="1" height=".5"/>
      <rect class="cls-1" x="10" y="23" width="1" height=".5"/>
      <rect class="cls-1" x="6" y="23" width="1" height=".5"/>
      <rect class="cls-1" x="5" y="22.5" width="1" height=".5"/>
      <rect class="cls-1" x="11" y="20.5" width="1" height=".5"/>
      <rect class="cls-1" x="8" y="21" width="1" height=".5"/>
      <rect class="cls-1" x="8" y="23" width="1" height=".5"/>
      <rect class="cls-1" x="9" y="22.5" width="1" height=".5"/>
      <rect class="cls-1" x="11" y="22" width="1" height=".5"/>
      <rect class="cls-1" x="8" y="21.5" width="1" height=".5"/>
      <rect class="cls-1" x="11" y="22.5" width="1" height=".5"/>
      <rect class="cls-1" x="9" y="20.5" width="1" height=".5"/>
      <rect class="cls-1" x="12" y="21" width="1" height=".5"/>
      <rect class="cls-1" x="10" y="21" width="1" height=".5"/>
      <rect class="cls-1" x="7" y="22.5" width="1" height=".5"/>
      <rect class="cls-1" x="8" y="19" width="1" height=".5"/>
      <rect class="cls-1" x="10" y="19" width="1" height=".5"/>
      <rect class="cls-1" x="9" y="22" width="1" height=".5"/>
      <rect class="cls-1" x="10" y="21.5" width="1" height=".5"/>
      <rect class="cls-1" x="13" y="22" width="1" height=".5"/>
      <rect class="cls-1" x="13" y="22.5" width="1" height=".5"/>
      <rect class="cls-1" x="4" y="21.5" width="1" height=".5"/>
      <rect class="cls-1" x="8" y="19.5" width="1" height=".5"/>
      <rect class="cls-1" x="4" y="23" width="1" height=".5"/>
      <rect class="cls-1" x="10" y="19.5" width="1" height=".5"/>
      <rect class="cls-1" x="4" y="23.5" width="1" height=".5"/>
      <rect class="cls-1" x="6" y="23.5" width="1" height=".5"/>
      <rect class="cls-1" x="8" y="23.5" width="1" height=".5"/>
      <rect class="cls-1" x="7" y="20.5" width="1" height=".5"/>
      <rect class="cls-1" x="5" y="22" width="1" height=".5"/>
      <rect class="cls-1" x="6" y="21.5" width="1" height=".5"/>
      <rect class="cls-1" x="6" y="21" width="1" height=".5"/>
      <rect class="cls-1" x="7" y="20" width="1" height=".5"/>
      <rect class="cls-1" x="10" y="23.5" width="1" height=".5"/>
      <rect class="cls-1" x="6" y="19" width="1" height=".5"/>
      <rect class="cls-1" x="3" y="22.5" width="1" height=".5"/>
      <rect class="cls-1" x="5" y="20.5" width="1" height=".5"/>
      <rect class="cls-1" x="5" y="20" width="1" height=".5"/>
      <rect class="cls-1" x="6" y="19.5" width="1" height=".5"/>
      <rect class="cls-1" x="3" y="22" width="1" height=".5"/>
      <rect class="cls-1" x="4" y="21" width="1" height=".5"/>
      <rect class="cls-1" x="12" y="23.5" width="1" height=".5"/>
      <rect class="cls-3" x="19" y="20" width="1" height=".5"/>
      <rect class="cls-3" x="19" y="20.5" width="1" height=".5"/>
      <rect class="cls-3" x="18" y="19.5" width="1" height=".5"/>
      <rect class="cls-3" x="18" y="19" width="1" height=".5"/>
      <rect class="cls-3" x="14" y="17.5" width="1" height=".5"/>
      <rect class="cls-3" x="14" y="17" width="1" height=".5"/>
      <rect class="cls-3" x="17" y="18.5" width="1" height=".5"/>
      <rect class="cls-3" x="17" y="18" width="1" height=".5"/>
      <rect class="cls-2" x="8" y="9" width="1" height=".5"/>
      <rect class="cls-2" x="8" y="9.5" width="1" height=".5"/>
      <rect class="cls-2" x="7" y="8" width="1" height=".5"/>
      <rect class="cls-2" x="14" y="7" width="1" height=".5"/>
      <rect class="cls-2" x="9" y="10.5" width="1" height=".5"/>
      <rect class="cls-2" x="14" y="7.5" width="1" height=".5"/>
      <rect class="cls-2" x="8" y="5" width="1" height=".5"/>
      <rect class="cls-2" x="9" y="4.5" width="1" height=".5"/>
      <rect class="cls-2" x="8" y="7" width="1" height=".5"/>
      <rect class="cls-2" x="9" y="6" width="1" height=".5"/>
      <rect class="cls-2" x="9" y="6.5" width="1" height=".5"/>
      <rect class="cls-2" x="8" y="5.5" width="1" height=".5"/>
      <rect class="cls-2" x="9" y="4" width="1" height=".5"/>
      <polygon class="cls-2" points="7 7 8 7 8 6.5 6 6.5 6 7.5 7 7.5 7 7"/>
      <rect class="cls-2" x="7" y="4" width="1" height=".5"/>
      <rect class="cls-2" x="7" y="4.5" width="1" height=".5"/>
      <rect class="cls-2" x="7" y="8.5" width="1" height=".5"/>
      <rect class="cls-2" x="6" y="7.5" width="1" height=".5"/>
      <rect class="cls-2" x="8" y="3" width="1" height=".5"/>
      <rect class="cls-2" x="8" y="3.5" width="1" height=".5"/>
      <polygon class="cls-2" points="14 5 14 5.5 14 6 15 6 15 5.5 15 5 14 5"/>
      <rect class="cls-2" x="12" y="7.5" width="1" height=".5"/>
      <rect class="cls-2" x="11" y="8.5" width="1" height=".5"/>
      <rect class="cls-2" x="10" y="7" width="1" height=".5"/>
      <rect class="cls-2" x="12" y="7" width="1" height=".5"/>
      <rect class="cls-2" x="11" y="6.5" width="1" height=".5"/>
      <rect class="cls-2" x="11" y="6" width="1" height=".5"/>
      <rect class="cls-2" x="11" y="8" width="1" height=".5"/>
      <rect class="cls-2" x="11" y="10.5" width="1" height=".5"/>
      <rect class="cls-2" x="10" y="5.5" width="1" height=".5"/>
      <rect class="cls-2" x="10" y="9.5" width="1" height=".5"/>
      <rect class="cls-2" x="10" y="9" width="1" height=".5"/>
      <rect class="cls-2" x="8" y="7.5" width="1" height=".5"/>
      <rect class="cls-2" x="13" y="6.5" width="1" height=".5"/>
      <rect class="cls-2" x="13" y="6" width="1" height=".5"/>
      <rect class="cls-2" x="13" y="8.5" width="1" height=".5"/>
      <rect class="cls-2" x="12" y="9" width="1" height=".5"/>
      <rect class="cls-2" x="10" y="7.5" width="1" height=".5"/>
      <rect class="cls-2" x="10" y="5" width="1" height=".5"/>
      <rect class="cls-2" x="12" y="9.5" width="1" height=".5"/>
      <rect class="cls-2" x="9" y="8" width="1" height=".5"/>
      <rect class="cls-2" x="9" y="8.5" width="1" height=".5"/>
      <rect class="cls-2" x="9" y="10" width="1" height=".5"/>
      <rect class="cls-2" x="11" y="10" width="1" height=".5"/>
      <rect class="cls-2" x="13" y="8" width="1" height=".5"/>
      <rect class="cls-2" x="6" y="5" width="1" height=".5"/>
      <polygon class="cls-2" points="8 6.5 8 6 7 6 7 5.5 6 5.5 6 6.5 8 6.5"/>
      <g>
        <polygon class="cls-2" points="13 4 13 3.5 13 3 12 3 12 3.5 12 4 11 4 11 4.5 11 5 12 5 12 5.5 12 6 13 6 13 5.5 13 5 14 5 14 4.5 14 4 13 4"/>
        <polygon class="cls-2" points="11 3 12 3 12 2.5 12 2 11 2 11 1.5 11 1 10 1 10 1.5 10 2 9 2 9 2.5 9 3 10 3 10 3.5 10 4 11 4 11 3.5 11 3"/>
      </g>
      <g>
        <polygon class="cls-1" points="9 4.5 9 4 8 4 8 4.5 8 5 9 5 9 4.5"/>
        <polygon class="cls-1" points="9 5.5 9 6 10 6 10 5.5 10 5 9 5 9 5.5"/>
        <polygon class="cls-1" points="11 3 11 3.5 11 4 12 4 12 3.5 12 3 11 3"/>
        <polygon class="cls-1" points="10 3.5 10 3 9 3 9 3.5 9 4 10 4 10 3.5"/>
        <polygon class="cls-1" points="10 4.5 10 5 11 5 11 4.5 11 4 10 4 10 4.5"/>
        <polygon class="cls-1" points="10 6.5 10 7 11 7 11 6.5 11 6 10 6 10 6.5"/>
        <polygon class="cls-1" points="9 6 8 6 8 6.5 8 7 9 7 9 6.5 9 6"/>
        <polygon class="cls-1" points="7 7.5 7 8 8 8 8 7.5 8 7 7 7 7 7.5"/>
        <polygon class="cls-1" points="11 6 12 6 12 5.5 12 5 11 5 11 5.5 11 6"/>
        <polygon class="cls-1" points="9 7.5 9 8 10 8 10 7.5 10 7 9 7 9 7.5"/>
        <polygon class="cls-1" points="8 5 7 5 7 5.5 7 6 8 6 8 5.5 8 5"/>
      </g>
      <rect class="cls-3" x="18" y="21.5" width="1" height=".5"/>
      <rect class="cls-3" x="18" y="21" width="1" height=".5"/>
      <rect class="cls-3" x="19" y="22" width="1" height=".5"/>
      <rect class="cls-3" x="19" y="22.5" width="1" height=".5"/>
      <rect class="cls-3" x="17" y="20" width="1" height=".5"/>
      <rect class="cls-3" x="17" y="20.5" width="1" height=".5"/>
      <rect class="cls-3" x="20" y="23" width="1" height=".5"/>
      <rect class="cls-3" x="20" y="23.5" width="1" height=".5"/>
      <rect class="cls-3" x="15" y="18.5" width="1" height=".5"/>
      <rect class="cls-3" x="15" y="18" width="1" height=".5"/>
      <g>
        <polygon class="cls-3" points="13 11.5 13 12 14 12 14 11.5 14 11 13 11 13 11.5"/>
        <polygon class="cls-3" points="14 10.5 14 11 15 11 15 10.5 15 10 14 10 14 10.5"/>
        <polygon class="cls-3" points="7 10 6 10 6 10.5 6 11 7 11 7 10.5 7 10"/>
        <polygon class="cls-3" points="15 4 16 4 16 3.5 16 3 15 3 15 3.5 15 4"/>
        <polygon class="cls-3" points="13 6.5 13 6 12 6 12 6.5 12 7 13 7 13 6.5"/>
        <polygon class="cls-3" points="11 10 10 10 10 10.5 10 11 11 11 11 10.5 11 10"/>
        <polygon class="cls-3" points="12 9.5 12 9 11 9 11 9.5 11 10 12 10 12 9.5"/>
        <polygon class="cls-3" points="14 7.5 14 7 13 7 13 7.5 13 8 14 8 14 7.5"/>
        <polygon class="cls-3" points="13 8.5 13 8 12 8 12 8.5 12 9 13 9 13 8.5"/>
        <polygon class="cls-3" points="12 7.5 12 7 11 7 11 7.5 11 8 12 8 12 7.5"/>
        <polygon class="cls-3" points="6 6.5 6 5.5 6 5 5 5 5 5.5 5 6.5 5 7.5 5 8 6 8 6 7.5 6 6.5"/>
        <polygon class="cls-3" points="7 4.5 7 4 8 4 8 3.5 8 3 9 3 9 2.5 9 2 7 2 7 2.5 7 3 6 3 6 3.5 6 4.5 6 5 7 5 7 4.5"/>
        <polygon class="cls-3" points="13 2 12 2 12 2.5 12 3 13 3 13 2.5 13 2"/>
        <polygon class="cls-3" points="11 8.5 11 8 10 8 10 8.5 10 9 11 9 11 8.5"/>
        <polygon class="cls-3" points="9 10 10 10 10 9.5 10 9 9 9 9 9.5 9 10"/>
        <polygon class="cls-3" points="14 3 13 3 13 3.5 13 4 14 4 14 3.5 14 3"/>
        <polygon class="cls-3" points="14 6.5 14 7 15 7 15 6.5 15 6 14 6 14 6.5"/>
        <polygon class="cls-3" points="14 5.5 14 5 13 5 13 5.5 13 6 14 6 14 5.5"/>
        <polygon class="cls-3" points="7 8 6 8 6 8.5 6 9 7 9 7 8.5 7 8"/>
        <polygon class="cls-3" points="8 9.5 8 9 7 9 7 9.5 7 10 8 10 8 9.5"/>
        <polygon class="cls-3" points="10 11 9 11 9 11.5 9 12 10 12 10 11.5 10 11"/>
        <polygon class="cls-3" points="15 7.5 15 8 16 8 16 7.5 16 7 15 7 15 7.5"/>
        <polygon class="cls-3" points="15 4.5 15 4 14 4 14 4.5 14 5 15 5 15 4.5"/>
        <polygon class="cls-3" points="9 10 8 10 8 10.5 8 11 9 11 9 10.5 9 10"/>
        <polygon class="cls-3" points="10 1.5 10 1 9 1 9 1.5 9 2 10 2 10 1.5"/>
        <polygon class="cls-3" points="9 8.5 9 8 8 8 8 8.5 8 9 9 9 9 8.5"/>
        <polygon class="cls-3" points="12 1 11 1 11 1.5 11 2 12 2 12 1.5 12 1"/>
        <polygon class="cls-3" points="13 9.5 13 10 14 10 14 9.5 14 9 13 9 13 9.5"/>
        <polygon class="cls-3" points="12 11 11 11 11 11.5 11 12 12 12 12 11.5 12 11"/>
        <polygon class="cls-3" points="14 8.5 14 9 15 9 15 8.5 15 8 14 8 14 8.5"/>
        <polygon class="cls-3" points="12 10.5 12 11 13 11 13 10.5 13 10 12 10 12 10.5"/>
        <polygon class="cls-3" points="15 6 16 6 16 5.5 16 5 15 5 15 5.5 15 6"/>
        <polygon class="cls-3" points="15 2.5 15 2 14 2 14 2.5 14 3 15 3 15 2.5"/>
        <polygon class="cls-3" points="12 12.5 12 13 13 13 13 12.5 13 12 12 12 12 12.5"/>
        <polygon class="cls-3" points="7 11.5 7 12 8 12 8 11.5 8 11 7 11 7 11.5"/>
        <polygon class="cls-3" points="16 9 17 9 17 8.5 17 8 16 8 16 8.5 16 9"/>
        <polygon class="cls-3" points="10 12.5 10 13 11 13 11 12.5 11 12 10 12 10 12.5"/>
        <polygon class="cls-3" points="16 6 16 6.5 16 7 17 7 17 6.5 17 6 16 6"/>
        <polygon class="cls-3" points="15 9.5 15 10 16 10 16 9.5 16 9 15 9 15 9.5"/>
      </g>
      <rect class="cls-3" x="16" y="19" width="1" height=".5"/>
      <rect class="cls-3" x="16" y="19.5" width="1" height=".5"/>
      <polygon points="7 11 8 11 8 10.5 8 10 7 10 7 10.5 7 11"/>
      <rect x="18" y="18" width="1" height=".5"/>
      <rect x="18" y="18.5" width="1" height=".5"/>
      <rect x="16" y="18.5" width="1" height=".5"/>
      <polygon points="16 17 16 16.5 16 16 11 16 11 16.5 11 17 13 17 13 17.5 13 18 14 18 14 17.5 14 17 15 17 15 17.5 15 18 16 18 16 18.5 17 18.5 17 18 18 18 18 17.5 18 17 16 17"/>
      <rect x="14" y="18" width="1" height=".5"/>
      <rect x="14" y="18.5" width="1" height=".5"/>
      <rect x="19" y="19" width="1" height=".5"/>
      <rect x="19" y="19.5" width="1" height=".5"/>
      <rect x="18" y="20" width="1" height=".5"/>
      <rect x="18" y="20.5" width="1" height=".5"/>
      <rect x="21" y="23.5" width="1" height=".5"/>
      <polygon points="20 23 21 23 21 23.5 22 23.5 22 22.5 20 22.5 20 23"/>
      <polygon points="21 22 21 21.5 19 21.5 19 22 20 22 20 22.5 22 22.5 22 22 21 22"/>
      <rect x="20" y="20" width="1" height=".5"/>
      <polygon points="20 21 19 21 19 21.5 21 21.5 21 20.5 20 20.5 20 21"/>
      <rect x="19" y="23" width="1" height=".5"/>
      <rect x="19" y="23.5" width="1" height=".5"/>
      <rect x="15" y="19.5" width="1" height=".5"/>
      <rect x="15" y="19" width="1" height=".5"/>
      <rect x="20" y="24" width="1" height=".5"/>
      <rect x="20" y="24.5" width="1" height=".5"/>
      <rect x="18" y="22" width="1" height=".5"/>
      <rect x="18" y="22.5" width="1" height=".5"/>
      <rect x="17" y="19" width="1" height=".5"/>
      <rect x="17" y="19.5" width="1" height=".5"/>
      <rect x="17" y="21" width="1" height=".5"/>
      <rect x="17" y="21.5" width="1" height=".5"/>
      <rect x="16" y="20" width="1" height=".5"/>
      <rect x="16" y="20.5" width="1" height=".5"/>
      <rect x="18" y="24" width="1" height=".5"/>
      <rect x="18" y="24.5" width="1" height=".5"/>
      <rect x="3" y="18.5" width="1" height=".5"/>
      <rect x="3" y="18" width="1" height=".5"/>
      <rect x="4" y="17" width="2" height=".5"/>
      <polygon points="6 18 6 17.5 4 17.5 4 18 5 18 6 18"/>
      <g>
        <polygon points="15 8.5 15 9 16 9 16 8.5 16 8 15 8 15 8.5"/>
        <polygon points="16 9.5 16 10 15 10 15 10.5 15 11 14 11 14 11.5 14 12 13 12 13 12.5 13 13 15 13 15 12.5 15 12 16 12 16 11.5 16 11 17 11 17 10.5 17 9.5 17 9 16 9 16 9.5"/>
        <polygon points="11 11 10 11 10 11.5 10 12 11 12 11 11.5 11 11"/>
        <polygon points="15 6.5 15 7 16 7 16 6.5 16 6 15 6 15 6.5"/>
        <polygon points="15 9 14 9 14 9.5 14 10 15 10 15 9.5 15 9"/>
        <polygon points="6 10 7 10 7 9.5 7 9 6 9 6 8.5 6 8 5 8 5 8.5 5 9 5 9.5 5 10.5 5 11 6 11 6 10.5 6 10"/>
        <polygon points="13 11 12 11 12 11.5 12 12 13 12 13 11.5 13 11"/>
        <polygon points="12 12.5 12 12 11 12 11 12.5 11 13 10 13 10 12.5 10 12 9 12 9 11.5 9 11 8 11 8 11.5 8 12 7 12 7 12.5 7 13 9 13 9 13.5 9 14 13 14 13 13.5 13 13 12 13 12 12.5"/>
        <polygon points="7 11 6 11 6 11.5 6 12 7 12 7 11.5 7 11"/>
        <polygon points="14 10 13 10 13 10.5 13 11 14 11 14 10.5 14 10"/>
        <polygon points="17 5 17 4.5 17 3.5 17 3 16 3 16 3.5 16 4 15 4 15 4.5 15 5 16 5 16 5.5 16 6 17 6 17 6.5 17 7 16 7 16 7.5 16 8 17 8 17 8.5 17 9 18 9 18 8.5 18 7.5 18 6.5 18 5.5 18 5 17 5"/>
        <polygon points="15 3 16 3 16 2.5 16 2 15 2 15 2.5 15 3"/>
        <polygon points="12 2 13 2 13 2.5 13 3 14 3 14 2.5 14 2 15 2 15 1.5 15 1 13 1 12 1 12 1.5 12 2"/>
        <polygon points="15 3 14 3 14 3.5 14 4 15 4 15 3.5 15 3"/>
        <polygon points="11 1 12 1 12 .5 12 0 9 0 9 .5 9 1 10 1 11 1"/>
        <polygon points="9 1.5 9 1 7 1 7 1.5 7 2 9 2 9 1.5"/>
        <polygon points="7 2.5 7 2 6 2 6 2.5 6 3 7 3 7 2.5"/>
        <polygon points="5 6.5 5 5.5 5 5 4 5 4 5.5 4 6.5 4 7.5 4 8 5 8 5 7.5 5 6.5"/>
        <polygon points="6 4.5 6 3.5 6 3 5 3 5 3.5 5 4 5 4.5 5 5 6 5 6 4.5"/>
      </g>
      <rect x="6" y="16.5" width="2" height=".5"/>
      <rect x="6" y="16" width="2" height=".5"/>
      <rect x="2" y="19" width="1" height=".5"/>
      <rect x="2" y="19.5" width="1" height=".5"/>
      <rect y="23.5" width="1" height="1"/>
      <rect x="21" y="25" width="1" height=".5"/>
      <rect y="22" width="1" height=".5"/>
      <polygon points="21 26 1 26 1 25.5 0 25.5 0 26 0 27 22 27 22 25.5 21 25.5 21 26"/>
      <rect y="22.5" width="1" height="1"/>
      <rect y="24.5" width="1" height="1"/>
      <rect x="1" y="20" width="1" height=".5"/>
      <rect x="1" y="20.5" width="1" height="1"/>
      <rect x="1" y="21.5" width="1" height=".5"/>
    </g>
  </g>
</svg>