<?xml version="1.0" encoding="UTF-8"?>
<svg xmlns="http://www.w3.org/2000/svg" viewBox="0 0 22 27">
  <defs>
    <style>
      .cls-1 {
        fill: #ba9aae;
      }

      .cls-2 {
        fill: #2d2d2d;
      }

      .cls-3 {
        fill: #fff;
      }

      .cls-4 {
        fill: #88074b;
      }

      .cls-5 {
        fill: #bf4484;
      }
    </style>
  </defs>
  <g id="Layer_1" data-name="Layer 1" shape-rendering="crispEdges">
    <g>
      <polygon class="cls-1" points="15 22 16 22 16 21.5 16 21 15 21 15 21.5 15 22"/>
      <polygon class="cls-1" points="16 22 16 22.5 16 23 17 23 17 22.5 17 22 16 22"/>
      <polygon class="cls-1" points="5 22 4 22 4 22.5 4 23 5 23 5 22.5 5 22"/>
      <polygon class="cls-1" points="5 22 6 22 6 21.5 6 21 5 21 5 21.5 5 22"/>
      <polygon class="cls-1" points="6 21 7 21 7 20.5 7 20 6 20 6 20.5 6 21"/>
      <polygon class="cls-1" points="11 22 10 22 10 22.5 10 23 11 23 11 22.5 11 22"/>
      <polygon class="cls-1" points="15 20.5 15 20 14 20 14 20.5 14 21 15 21 15 20.5"/>
      <polygon class="cls-1" points="13 22 14 22 14 21.5 14 21 13 21 13 21.5 13 22"/>
      <polygon class="cls-1" points="11 21.5 11 22 12 22 12 21.5 12 21 11 21 11 21.5"/>
      <polygon class="cls-1" points="13 22 12 22 12 22.5 12 23 13 23 13 22.5 13 22"/>
      <polygon class="cls-1" points="10 21 9 21 9 21.5 9 22 10 22 10 21.5 10 21"/>
      <polygon class="cls-1" points="9 22 8 22 8 22.5 8 23 9 23 9 22.5 9 22"/>
      <polygon class="cls-1" points="10 21 11 21 11 20.5 11 20 10 20 10 20.5 10 21"/>
      <polygon class="cls-1" points="14 22.5 14 23 15 23 15 22.5 15 22 14 22 14 22.5"/>
      <polygon class="cls-1" points="8 21 9 21 9 20.5 9 20 8 20 8 20.5 8 21"/>
      <polygon class="cls-1" points="8 21 7 21 7 21.5 7 22 8 22 8 21.5 8 21"/>
      <polygon class="cls-1" points="7 22 6 22 6 22.5 6 23 7 23 7 22.5 7 22"/>
      <polygon class="cls-1" points="15 23.5 15 24 16 24 16 23.5 16 23 15 23 15 23.5"/>
      <polygon class="cls-1" points="8 23 7 23 7 23.5 7 24 8 24 8 23.5 8 23"/>
      <polygon class="cls-1" points="12 23 11 23 11 23.5 11 24 12 24 12 23.5 12 23"/>
      <polygon class="cls-1" points="10 23 9 23 9 23.5 9 24 10 24 10 23.5 10 23"/>
      <polygon class="cls-1" points="6 23 5 23 5 23.5 5 24 6 24 6 23.5 6 23"/>
      <polygon class="cls-1" points="14 23 13 23 13 23.5 13 24 14 24 14 23.5 14 23"/>
      <polygon class="cls-1" points="4 24.5 4 25 5 25 5 24.5 5 24 4 24 4 24.5"/>
      <polygon class="cls-1" points="2 24.5 2 25 3 25 3 24.5 3 24 2 24 2 24.5"/>
      <polygon class="cls-1" points="4 21.5 4 21 5 21 5 20.5 5 20 6 20 6 19.5 6 19 7 19 7 19.5 7 20 8 20 8 19.5 8 19 9 19 9 19.5 9 20 10 20 10 19.5 10 19 11 19 11 19.5 11 20 12 20 12 20.5 12 21 13 21 13 20.5 13 19.5 13 19 12 19 12 18.5 12 18 6 18 5 18 5 18.5 5 19 4 19 4 19.5 4 20 3 20 3 20.5 3 21.5 3 22 4 22 4 21.5"/>
      <polygon class="cls-1" points="8 24.5 8 25 9 25 9 24.5 9 24 8 24 8 24.5"/>
      <polygon class="cls-1" points="6 24.5 6 25 7 25 7 24.5 7 24 6 24 6 24.5"/>
      <polygon class="cls-1" points="4 23 3 23 3 23.5 3 24 4 24 4 23.5 4 23"/>
      <polygon class="cls-1" points="14 24.5 14 25 15 25 15 24.5 15 24 14 24 14 24.5"/>
      <polygon class="cls-1" points="12 24.5 12 25 13 25 13 24.5 13 24 12 24 12 24.5"/>
      <polygon class="cls-1" points="10 24.5 10 25 11 25 11 24.5 11 24 10 24 10 24.5"/>
      <polygon class="cls-1" points="3 22 2 22 2 22.5 2 23 3 23 3 22.5 3 22"/>
      <polygon class="cls-1" points="16 25 17 25 17 24.5 17 24 16 24 16 24.5 16 25"/>
      <polygon class="cls-1" points="9 9 8 9 8 9.5 8 10 9 10 9 9.5 9 9"/>
      <polygon class="cls-1" points="8 8 7 8 7 8.5 7 9 8 9 8 8.5 8 8"/>
      <polygon class="cls-1" points="14 8 15 8 15 7.5 15 7 14 7 14 7.5 14 8"/>
      <polygon class="cls-1" points="10 4.5 10 4 9 4 9 4.5 9 5 10 5 10 4.5"/>
      <polygon class="cls-1" points="8 8 9 8 9 7.5 9 7 8 7 8 7.5 8 8"/>
      <polygon class="cls-1" points="10 6.5 10 6 9 6 9 6.5 9 7 10 7 10 6.5"/>
      <polygon class="cls-1" points="9 5.5 9 5 8 5 8 5.5 8 6 9 6 9 5.5"/>
      <polygon class="cls-1" points="7 7.5 7 7 8 7 8 6.5 8 6 7 6 7 5.5 7 5 6 5 6 5.5 6 6.5 6 7.5 6 8 7 8 7 7.5"/>
      <polygon class="cls-1" points="8 4.5 8 4 7 4 7 4.5 7 5 8 5 8 4.5"/>
      <polygon class="cls-1" points="9 3.5 9 3 8 3 8 3.5 8 4 9 4 9 3.5"/>
      <polygon class="cls-1" points="14 6 15 6 15 5.5 15 5 14 5 14 5.5 14 6"/>
      <polygon class="cls-1" points="10 7.5 10 8 11 8 11 7.5 11 7 10 7 10 7.5"/>
      <polygon class="cls-1" points="12 7.5 12 8 13 8 13 7.5 13 7 12 7 12 7.5"/>
      <polygon class="cls-1" points="11 6.5 11 7 12 7 12 6.5 12 6 11 6 11 6.5"/>
      <polygon class="cls-1" points="11 8.5 11 9 12 9 12 8.5 12 8 11 8 11 8.5"/>
      <polygon class="cls-1" points="11 9 10 9 10 9.5 10 10 11 10 11 9.5 11 9"/>
      <polygon class="cls-1" points="13 6.5 13 7 14 7 14 6.5 14 6 13 6 13 6.5"/>
      <polygon class="cls-1" points="12 9.5 12 10 13 10 13 9.5 13 9 12 9 12 9.5"/>
      <polygon class="cls-1" points="10 5.5 10 6 11 6 11 5.5 11 5 10 5 10 5.5"/>
      <polygon class="cls-1" points="10 8 9 8 9 8.5 9 9 10 9 10 8.5 10 8"/>
      <polygon class="cls-1" points="9 10.5 9 11 10 11 10 10.5 10 10 9 10 9 10.5"/>
      <polygon class="cls-1" points="11 10.5 11 11 12 11 12 10.5 12 10 11 10 11 10.5"/>
      <polygon class="cls-1" points="13 8.5 13 9 14 9 14 8.5 14 8 13 8 13 8.5"/>
      <polygon class="cls-1" points="12 4 11 4 11 4.5 11 5 12 5 12 5.5 12 6 13 6 13 5.5 13 5 14 5 14 4.5 14 4 13 4 13 3.5 13 3 12 3 12 3.5 12 4"/>
      <polygon class="cls-1" points="10 3.5 10 4 11 4 11 3.5 11 3 12 3 12 2.5 12 2 11 2 11 1.5 11 1 10 1 10 1.5 10 2 9 2 9 2.5 9 3 10 3 10 3.5"/>
    </g>
    <g>
      <polygon class="cls-3" points="12 23.5 12 24 13 24 13 23.5 13 23 12 23 12 23.5"/>
      <polygon class="cls-3" points="8 22 7 22 7 22.5 7 23 8 23 8 22.5 8 22"/>
      <polygon class="cls-3" points="12 22 13 22 13 21.5 13 21 12 21 12 21.5 12 22"/>
      <polygon class="cls-3" points="10 23.5 10 24 11 24 11 23.5 11 23 10 23 10 23.5"/>
      <polygon class="cls-3" points="6 23.5 6 24 7 24 7 23.5 7 23 6 23 6 23.5"/>
      <polygon class="cls-3" points="11 21 12 21 12 20.5 12 20 11 20 11 20.5 11 21"/>
      <polygon class="cls-3" points="9 21 8 21 8 21.5 8 22 9 22 9 21.5 9 21"/>
      <polygon class="cls-3" points="8 23.5 8 24 9 24 9 23.5 9 23 8 23 8 23.5"/>
      <polygon class="cls-3" points="12 22 11 22 11 22.5 11 23 12 23 12 22.5 12 22"/>
      <polygon class="cls-3" points="9 21 10 21 10 20.5 10 20 9 20 9 20.5 9 21"/>
      <polygon class="cls-3" points="11 21 10 21 10 21.5 10 22 11 22 11 21.5 11 21"/>
      <polygon class="cls-3" points="10 22 9 22 9 22.5 9 23 10 23 10 22.5 10 22"/>
      <polygon class="cls-3" points="13 22 13 22.5 13 23 14 23 14 22.5 14 22 13 22"/>
      <polygon class="cls-3" points="5 21.5 5 21 4 21 4 21.5 4 22 5 22 5 21.5"/>
      <polygon class="cls-3" points="9 19.5 9 19 8 19 8 19.5 8 20 9 20 9 19.5"/>
      <polygon class="cls-3" points="4 23.5 4 24 5 24 5 23.5 5 23 4 23 4 23.5"/>
      <polygon class="cls-3" points="11 19.5 11 19 10 19 10 19.5 10 20 11 20 11 19.5"/>
      <polygon class="cls-3" points="7 21 8 21 8 20.5 8 20 7 20 7 20.5 7 21"/>
      <polygon class="cls-3" points="6 22 5 22 5 22.5 5 23 6 23 6 22.5 6 22"/>
      <polygon class="cls-3" points="7 21 6 21 6 21.5 6 22 7 22 7 21.5 7 21"/>
      <polygon class="cls-3" points="6 20.5 6 20 5 20 5 20.5 5 21 6 21 6 20.5"/>
      <polygon class="cls-3" points="7 19.5 7 19 6 19 6 19.5 6 20 7 20 7 19.5"/>
      <polygon class="cls-3" points="4 22 3 22 3 22.5 3 23 4 23 4 22.5 4 22"/>
      <polygon class="cls-3" points="9 4.5 9 4 8 4 8 4.5 8 5 9 5 9 4.5"/>
      <polygon class="cls-3" points="10 5.5 10 5 9 5 9 5.5 9 6 10 6 10 5.5"/>
      <polygon class="cls-3" points="12 3.5 12 3 11 3 11 3.5 11 4 12 4 12 3.5"/>
      <polygon class="cls-3" points="10 3.5 10 3 9 3 9 3.5 9 4 10 4 10 3.5"/>
      <polygon class="cls-3" points="10 5 11 5 11 4.5 11 4 10 4 10 4.5 10 5"/>
      <polygon class="cls-3" points="10 6.5 10 7 11 7 11 6.5 11 6 10 6 10 6.5"/>
      <polygon class="cls-3" points="9 6.5 9 6 8 6 8 6.5 8 7 9 7 9 6.5"/>
      <polygon class="cls-3" points="8 7.5 8 7 7 7 7 7.5 7 8 8 8 8 7.5"/>
      <polygon class="cls-3" points="11 6 12 6 12 5.5 12 5 11 5 11 5.5 11 6"/>
      <polygon class="cls-3" points="9 7.5 9 8 10 8 10 7.5 10 7 9 7 9 7.5"/>
      <polygon class="cls-3" points="8 5 7 5 7 5.5 7 6 8 6 8 5.5 8 5"/>
    </g>
    <g>
      <polygon class="cls-5" points="13 11.5 13 12 14 12 14 11.5 14 11 13 11 13 11.5"/>
      <polygon class="cls-5" points="14 10.5 14 11 15 11 15 10.5 15 10 14 10 14 10.5"/>
      <polygon class="cls-5" points="7 10 6 10 6 10.5 6 11 7 11 7 10.5 7 10"/>
      <polygon class="cls-5" points="15 4 16 4 16 3.5 16 3 15 3 15 3.5 15 4"/>
      <polygon class="cls-5" points="13 6.5 13 6 12 6 12 6.5 12 7 13 7 13 6.5"/>
      <polygon class="cls-5" points="10 11 11 11 11 10.5 11 10 10 10 10 10.5 10 11"/>
      <polygon class="cls-5" points="12 9.5 12 9 11 9 11 9.5 11 10 12 10 12 9.5"/>
      <polygon class="cls-5" points="14 7.5 14 7 13 7 13 7.5 13 8 14 8 14 7.5"/>
      <polygon class="cls-5" points="13 8.5 13 8 12 8 12 8.5 12 9 13 9 13 8.5"/>
      <polygon class="cls-5" points="12 7.5 12 7 11 7 11 7.5 11 8 12 8 12 7.5"/>
      <polygon class="cls-5" points="6 7.5 6 6.5 6 5.5 6 5 5 5 5 5.5 5 6.5 5 7.5 5 8 6 8 6 7.5"/>
      <polygon class="cls-5" points="7 4.5 7 4 8 4 8 3.5 8 3 9 3 9 2.5 9 2 7 2 7 2.5 7 3 6 3 6 3.5 6 4.5 6 5 7 5 7 4.5"/>
      <polygon class="cls-5" points="13 2 12 2 12 2.5 12 3 13 3 13 2.5 13 2"/>
      <polygon class="cls-5" points="11 8.5 11 8 10 8 10 8.5 10 9 11 9 11 8.5"/>
      <polygon class="cls-5" points="9 10 10 10 10 9.5 10 9 9 9 9 9.5 9 10"/>
      <polygon class="cls-5" points="14 3 13 3 13 3.5 13 4 14 4 14 3.5 14 3"/>
      <polygon class="cls-5" points="15 6.5 15 6 14 6 14 6.5 14 7 15 7 15 6.5"/>
      <polygon class="cls-5" points="14 5.5 14 5 13 5 13 5.5 13 6 14 6 14 5.5"/>
      <polygon class="cls-5" points="6 9 7 9 7 8.5 7 8 6 8 6 8.5 6 9"/>
      <polygon class="cls-5" points="7 10 8 10 8 9.5 8 9 7 9 7 9.5 7 10"/>
      <polygon class="cls-5" points="10 11 9 11 9 11.5 9 12 10 12 10 11.5 10 11"/>
      <polygon class="cls-5" points="15 7.5 15 8 16 8 16 7.5 16 7 15 7 15 7.5"/>
      <polygon class="cls-5" points="15 4.5 15 4 14 4 14 4.5 14 5 15 5 15 4.5"/>
      <polygon class="cls-5" points="9 10 8 10 8 10.5 8 11 9 11 9 10.5 9 10"/>
      <polygon class="cls-5" points="10 1.5 10 1 9 1 9 1.5 9 2 10 2 10 1.5"/>
      <polygon class="cls-5" points="9 8.5 9 8 8 8 8 8.5 8 9 9 9 9 8.5"/>
      <polygon class="cls-5" points="12 1 11 1 11 1.5 11 2 12 2 12 1.5 12 1"/>
      <polygon class="cls-5" points="13 9.5 13 10 14 10 14 9.5 14 9 13 9 13 9.5"/>
      <polygon class="cls-5" points="12 11 11 11 11 11.5 11 12 12 12 12 11.5 12 11"/>
      <polygon class="cls-5" points="14 8.5 14 9 15 9 15 8.5 15 8 14 8 14 8.5"/>
      <polygon class="cls-5" points="12 10.5 12 11 13 11 13 10.5 13 10 12 10 12 10.5"/>
      <polygon class="cls-5" points="15 6 16 6 16 5.5 16 5 15 5 15 5.5 15 6"/>
      <polygon class="cls-5" points="15 2.5 15 2 14 2 14 2.5 14 3 15 3 15 2.5"/>
      <polygon class="cls-5" points="12 12.5 12 13 13 13 13 12.5 13 12 12 12 12 12.5"/>
      <polygon class="cls-5" points="7 11.5 7 12 8 12 8 11.5 8 11 7 11 7 11.5"/>
      <polygon class="cls-5" points="16 9 17 9 17 8.5 17 8 16 8 16 8.5 16 9"/>
      <polygon class="cls-5" points="10 12.5 10 13 11 13 11 12.5 11 12 10 12 10 12.5"/>
      <polygon class="cls-5" points="16 7 17 7 17 6.5 17 6 16 6 16 6.5 16 7"/>
      <polygon class="cls-5" points="15 9.5 15 10 16 10 16 9.5 16 9 15 9 15 9.5"/>
      <polygon class="cls-5" points="15 21 14 21 14 21.5 14 22 15 22 15 21.5 15 21"/>
      <polygon class="cls-5" points="15 23.5 15 23 14 23 14 23.5 14 24 15 24 15 23.5"/>
      <polygon class="cls-5" points="16 22.5 16 22 15 22 15 22.5 15 23 16 23 16 22.5"/>
      <polygon class="cls-5" points="15 17.5 15 17 14 17 14 17.5 14 18 15 18 15 17.5"/>
      <polygon class="cls-5" points="4 19.5 4 19 3 19 3 19.5 3 20 4 20 4 19.5"/>
      <polygon class="cls-5" points="3 21.5 3 20.5 3 20 2 20 2 20.5 2 21.5 2 22 3 22 3 21.5"/>
      <polygon class="cls-5" points="5 18.5 5 18 4 18 4 18.5 4 19 5 19 5 18.5"/>
      <polygon class="cls-5" points="14 20 15 20 15 19.5 15 19 14 19 14 18.5 14 18 13 18 13 17.5 13 17 11 17 11 16.5 11 16 8 16 8 16.5 8 17 6 17 6 17.5 6 18 12 18 12 18.5 12 19 13 19 13 19.5 13 20.5 13 21 14 21 14 20.5 14 20"/>
      <polygon class="cls-5" points="16 20 15 20 15 20.5 15 21 16 21 16 20.5 16 20"/>
      <polygon class="cls-5" points="15 19 16 19 16 18.5 16 18 15 18 15 18.5 15 19"/>
      <polygon class="cls-5" points="17 21 16 21 16 21.5 16 22 17 22 17 21.5 17 21"/>
      <polygon class="cls-5" points="20 24.5 20 24 19 24 19 24.5 19 25 18 25 18 24.5 18 24 19 24 19 23.5 19 23 18 23 18 22.5 18 22 17 22 17 22.5 17 23 16 23 16 23.5 16 24 17 24 17 24.5 17 25 16 25 16 24.5 16 24 15 24 15 24.5 15 25 14 25 14 24.5 14 24 13 24 13 24.5 13 25 12 25 12 24.5 12 24 11 24 11 24.5 11 25 10 25 10 24.5 10 24 9 24 9 24.5 9 25 8 25 8 24.5 8 24 7 24 7 24.5 7 25 6 25 6 24.5 6 24 5 24 5 24.5 5 25 4 25 4 24.5 4 24 3 24 3 24.5 3 25 2 25 2 24.5 2 24 3 24 3 23.5 3 23 2 23 2 22.5 2 22 1 22 1 22.5 1 23.5 1 24.5 1 25.5 1 26 21 26 21 25.5 21 25 20 25 20 24.5"/>
      <polygon class="cls-5" points="21 24 21 24.5 21 25 22 25 22 24.5 22 24 21 24"/>
      <polygon class="cls-5" points="19 21 20 21 20 20.5 20 20 19 20 19 20.5 19 21"/>
      <polygon class="cls-5" points="18 20 19 20 19 19.5 19 19 18 19 18 19.5 18 20"/>
      <polygon class="cls-5" points="18 18.5 18 18 17 18 17 18.5 17 19 18 19 18 18.5"/>
      <polygon class="cls-5" points="18 21.5 18 22 19 22 19 21.5 19 21 18 21 18 21.5"/>
      <polygon class="cls-5" points="19 23 20 23 20 22.5 20 22 19 22 19 22.5 19 23"/>
      <polygon class="cls-5" points="17 21 18 21 18 20.5 18 20 17 20 17 20.5 17 21"/>
      <polygon class="cls-5" points="20 24 21 24 21 23.5 21 23 20 23 20 23.5 20 24"/>
      <polygon class="cls-5" points="16 20 17 20 17 19.5 17 19 16 19 16 19.5 16 20"/>
    </g>
    <g>
      <polygon class="cls-4" points="21 25 21 25.5 21 26 1 26 1 25.5 1 24.5 1 23.5 1 22.5 1 22 0 22 0 22.5 0 23.5 0 24.5 0 25.5 0 26 0 27 22 27 22 25.5 22 25 21 25"/>
      <polygon class="cls-4" points="6 18 6 17.5 6 17 4 17 4 17.5 4 18 5 18 6 18"/>
      <polygon class="cls-4" points="8 16.5 8 16 6 16 6 16.5 6 17 8 17 8 16.5"/>
      <polygon class="cls-4" points="4 18.5 4 18 3 18 3 18.5 3 19 4 19 4 18.5"/>
      <polygon class="cls-4" points="3 19.5 3 19 2 19 2 19.5 2 20 3 20 3 19.5"/>
      <polygon class="cls-4" points="2 21.5 2 20.5 2 20 1 20 1 20.5 1 21.5 1 22 2 22 2 21.5"/>
      <polygon class="cls-4" points="7 11 8 11 8 10.5 8 10 7 10 7 10.5 7 11"/>
      <polygon class="cls-4" points="16 8.5 16 8 15 8 15 8.5 15 9 16 9 16 8.5"/>
      <polygon class="cls-4" points="16 10 15 10 15 10.5 15 11 14 11 14 11.5 14 12 13 12 13 12.5 13 13 15 13 15 12.5 15 12 16 12 16 11.5 16 11 17 11 17 10.5 17 9.5 17 9 16 9 16 9.5 16 10"/>
      <polygon class="cls-4" points="11 11.5 11 11 10 11 10 11.5 10 12 11 12 11 11.5"/>
      <polygon class="cls-4" points="15 6.5 15 7 16 7 16 6.5 16 6 15 6 15 6.5"/>
      <polygon class="cls-4" points="15 9.5 15 9 14 9 14 9.5 14 10 15 10 15 9.5"/>
      <polygon class="cls-4" points="5 9 5 9.5 5 10.5 5 11 6 11 6 10.5 6 10 7 10 7 9.5 7 9 6 9 6 8.5 6 8 5 8 5 8.5 5 9"/>
      <polygon class="cls-4" points="13 11.5 13 11 12 11 12 11.5 12 12 13 12 13 11.5"/>
      <polygon class="cls-4" points="8 12 7 12 7 12.5 7 13 9 13 9 13.5 9 14 13 14 13 13.5 13 13 12 13 12 12.5 12 12 11 12 11 12.5 11 13 10 13 10 12.5 10 12 9 12 9 11.5 9 11 8 11 8 11.5 8 12"/>
      <polygon class="cls-4" points="7 11 6 11 6 11.5 6 12 7 12 7 11.5 7 11"/>
      <polygon class="cls-4" points="14 10.5 14 10 13 10 13 10.5 13 11 14 11 14 10.5"/>
      <polygon class="cls-4" points="12 2 13 2 13 2.5 13 3 14 3 14 2.5 14 2 15 2 15 1.5 15 1 13 1 12 1 12 1.5 12 2"/>
      <polygon class="cls-4" points="11 1 12 1 12 .5 12 0 9 0 9 .5 9 1 10 1 11 1"/>
      <polygon class="cls-4" points="9 1.5 9 1 7 1 7 1.5 7 2 9 2 9 1.5"/>
      <polygon class="cls-4" points="7 2.5 7 2 6 2 6 2.5 6 3 7 3 7 2.5"/>
      <polygon class="cls-4" points="5 7.5 5 6.5 5 5.5 5 5 4 5 4 5.5 4 6.5 4 7.5 4 8 5 8 5 7.5"/>
      <polygon class="cls-4" points="6 4.5 6 3.5 6 3 5 3 5 3.5 5 4 5 4.5 5 5 6 5 6 4.5"/>
    </g>
    <g>
      <rect class="cls-2" x="9" y="13" width="4" height="1"/>
      <polygon class="cls-2" points="16 4 15 4 15 4.5 15 5 16 5 16 5.5 16 6 17 6 17 6.5 17 7 16 7 16 7.5 16 8 17 8 17 8.5 17 8.9 17 9 18 9 18 8.9 18 8.5 18 7.5 18 6.5 18 5.5 18 5 17 5 17 4.5 17 3.5 17 3 16 3 16 3.5 16 4"/>
      <polygon class="cls-2" points="16 2.5 16 2 15 2 15 2.5 15 3 16 3 16 2.5"/>
      <polygon class="cls-2" points="15 3.5 15 3 14 3 14 3.5 14 4 15 4 15 3.5"/>
      <polygon class="cls-2" points="15 18 14 18 14 18.5 14 19 15 19 15 18.5 15 18"/>
      <polygon class="cls-2" points="19 20 20 20 20 19.5 20 19 19 19 19 19.5 19 20"/>
      <polygon class="cls-2" points="18 19 19 19 19 18.5 19 18 18 18 18 18.5 18 19"/>
      <polygon class="cls-2" points="14 17 15 17 15 17.5 15 18 16 18 16 18.5 16 19 17 19 17 18.5 17 18 18 18 18 17.5 18 17 16 17 16 16.5 16 16 11 16 11 16.5 11 17 13 17 13 17.5 13 18 14 18 14 17.5 14 17"/>
      <polygon class="cls-2" points="19 20 18 20 18 20.5 18 21 19 21 19 20.5 19 20"/>
      <polygon class="cls-2" points="16 19 15 19 15 19.5 15 20 16 20 16 19.5 16 19"/>
      <polygon class="cls-2" points="18 19 17 19 17 19.5 17 20 18 20 18 19.5 18 19"/>
      <polygon class="cls-2" points="18 21 17 21 17 21.5 17 22 18 22 18 21.5 18 21"/>
      <polygon class="cls-2" points="17 20 16 20 16 20.5 16 21 17 21 17 20.5 17 20"/>
      <polygon class="cls-2" points="21 22 21 21.5 21 20.5 21 20 20 20 20 20.5 20 21 19 21 19 21.5 19 22 20 22 20 22.5 20 23 21 23 21 23.5 21 24 22 24 22 23.5 22 22.5 22 22 21 22"/>
      <polygon class="cls-2" points="20 23 19 23 19 23.5 19 24 20 24 20 23.5 20 23"/>
      <polygon class="cls-2" points="19 22 18 22 18 22.5 18 23 19 23 19 22.5 19 22"/>
      <polygon class="cls-2" points="20 24.5 20 25 21 25 21 24.5 21 24 20 24 20 24.5"/>
      <polygon class="cls-2" points="19.5 26 18 26 18 27 19.5 27 21 27 22 27 22 26 22 25 21 25 21 26 19.5 26"/>
      <polygon class="cls-2" points="18 24.5 18 25 19 25 19 24.5 19 24 18 24 18 24.5"/>
      <rect class="cls-2" x="14" y="1" width="1" height="1"/>
    </g>
  </g>
</svg>