<svg xmlns="http://www.w3.org/2000/svg" viewBox="0 -0.5 28 27" shape-rendering="crispEdges">

<path stroke="#008080" d="M9 0h3M7 1h3M11 1h1M6 2h1M8 2h1M10 2h1M5 3h1M7 3h1M9 3h1M5 4h2M8 4h1M10 4h1M4 5h2M7 5h1M9 5h1M4 6h1M6 6h1M8 6h1M4 7h2M7 7h1M9 7h1M4 8h1M6 8h1M8 8h1M5 9h1M7 9h1M9 9h1M5 10h2M8 10h1M10 10h1M6 11h2M9 11h1M11 11h1M8 12h1M10 12h1M12 12h1M6 16h6M4 17h1M6 17h1M8 17h1M3 18h1M5 18h1M7 18h1M2 19h1M4 19h1M6 19h1M1 20h1M3 20h1M5 20h1M1 21h2M4 21h1M6 21h1M0 22h2M3 22h1M5 22h1M0 23h1M2 23h1M4 23h1M1 24h1M3 24h1M5 24h1M0 25h3M4 25h1" />
<path stroke="#808080" d="M12 0h1M18 0h1M10 1h1M12 1h1M15 1h1M17 1h1M7 2h1M9 2h1M11 2h1M13 2h2M18 2h1M20 2h1M6 3h1M12 3h2M19 3h1M21 3h1M12 4h1M20 4h1M11 5h1M19 5h1M21 5h1M5 6h1M11 6h1M18 6h1M20 6h1M22 6h1M11 7h1M17 7h1M19 7h1M21 7h1M5 8h1M10 8h1M12 8h1M14 8h1M16 8h1M18 8h1M20 8h1M22 8h1M6 9h1M13 9h1M15 9h1M17 9h1M19 9h1M21 9h1M7 10h1M9 10h1M12 10h1M14 10h1M16 10h1M18 10h1M20 10h1M8 11h1M10 11h1M13 11h1M15 11h1M17 11h1M19 11h1M9 12h1M11 12h1M16 12h1M18 12h1M14 16h3M5 17h1M7 17h1M12 17h7M20 17h1M4 18h1M10 18h1M18 18h2M21 18h1M23 18h1M3 19h1M9 19h1M19 19h2M22 19h1M24 19h1M2 20h1M8 20h1M19 20h1M21 20h1M23 20h1M25 20h1M8 21h1M20 21h1M22 21h1M24 21h1M7 22h1M21 22h1M23 22h1M25 22h1M1 23h1M7 23h2M20 23h1M22 23h3M26 23h1M0 24h1M7 24h1M9 24h1M11 24h1M13 24h1M15 24h1M17 24h1M19 24h1M21 24h1M23 24h1M25 24h1M27 24h1M7 25h20" />
<path stroke="#000000" d="M15 0h3M13 1h2M18 1h3M12 2h1M19 2h1M21 2h1M11 3h1M20 3h1M22 3h1M11 4h1M21 4h2M10 5h1M22 5h2M10 6h1M21 6h1M23 6h1M10 7h1M22 7h2M11 8h1M21 8h1M23 8h1M11 9h2M20 9h1M22 9h1M11 10h1M13 10h1M19 10h1M21 10h2M12 11h1M14 11h1M16 11h1M18 11h1M20 11h2M7 12h1M13 12h3M17 12h1M19 12h2M9 13h4M15 13h4M12 16h2M17 16h5M10 17h2M19 17h1M21 17h3M9 18h1M20 18h1M22 18h1M24 18h1M8 19h1M21 19h1M23 19h1M25 19h1M7 20h1M22 20h1M24 20h1M26 20h1M7 21h1M23 21h1M25 21h2M6 22h1M24 22h1M26 22h2M6 23h1M25 23h1M27 23h1M6 24h1M24 24h1M26 24h1M6 25h1M27 25h1M0 26h28" />
<path stroke="#c0c0c0" d="M16 1h1M15 2h3M8 3h1M10 3h1M14 3h1M16 3h1M18 3h1M7 4h1M9 4h1M13 4h1M15 4h1M17 4h3M6 5h1M8 5h1M12 5h1M14 5h1M16 5h1M18 5h1M20 5h1M7 6h1M9 6h1M12 6h2M15 6h1M17 6h1M19 6h1M6 7h1M8 7h1M12 7h1M14 7h1M16 7h1M18 7h1M20 7h1M7 8h1M9 8h1M13 8h1M15 8h1M17 8h1M19 8h1M8 9h1M10 9h1M14 9h1M16 9h1M18 9h1M15 10h1M17 10h1M9 17h1M6 18h1M8 18h1M11 18h7M5 19h1M7 19h1M10 19h2M13 19h1M15 19h1M17 19h2M4 20h1M6 20h1M9 20h2M12 20h1M14 20h1M16 20h1M18 20h1M20 20h1M3 21h1M5 21h1M9 21h1M11 21h1M13 21h1M15 21h1M17 21h1M19 21h1M21 21h1M2 22h1M4 22h1M8 22h1M10 22h1M12 22h1M14 22h1M16 22h1M18 22h1M20 22h1M22 22h1M3 23h1M5 23h1M9 23h1M11 23h1M13 23h1M15 23h1M17 23h1M19 23h1M21 23h1M2 24h1M4 24h1M8 24h1M10 24h1M12 24h1M14 24h1M16 24h1M18 24h1M20 24h1M22 24h1M3 25h1M5 25h1" />
<path stroke="#ffffff" d="M15 3h1M17 3h1M14 4h1M16 4h1M13 5h1M15 5h1M17 5h1M14 6h1M16 6h1M13 7h1M15 7h1M12 19h1M14 19h1M16 19h1M11 20h1M13 20h1M15 20h1M17 20h1M10 21h1M12 21h1M14 21h1M16 21h1M18 21h1M9 22h1M11 22h1M13 22h1M15 22h1M17 22h1M19 22h1M10 23h1M12 23h1M14 23h1M16 23h1M18 23h1" />
</svg>